<?xml version="1.0" encoding="iso-8859-1"?>
<!-- Uploaded to: SVG Repo, www.svgrepo.com, Generator: SVG Repo Mixer Tools -->
<svg height="800px" width="800px" version="1.1" id="Layer_1" xmlns="http://www.w3.org/2000/svg" xmlns:xlink="http://www.w3.org/1999/xlink" 
	 viewBox="0 0 503.467 503.467" xml:space="preserve">
<g transform="translate(3 1)">
	<path style="fill:#50DD8E;" d="M189.427,208.067c9.387,0,17.067,7.68,17.067,17.067s-7.68,17.067-17.067,17.067
		s-17.067-7.68-17.067-17.067S180.04,208.067,189.427,208.067z M308.893,208.067c9.387,0,17.067,7.68,17.067,17.067
		s-7.68,17.067-17.067,17.067s-17.067-7.68-17.067-17.067S299.507,208.067,308.893,208.067z"/>
	<path style="fill:#ECF4F7;" d="M402.76,155.16c16.213,27.307,25.6,60.587,25.6,95.573c0,64.853-34.133,121.173-86.187,152.747
		c-27.307,17.067-58.88,26.453-93.013,26.453s-66.56-9.387-93.867-26.453c-51.2-31.573-85.333-87.893-85.333-152.747
		c0-34.987,8.533-68.267,25.6-95.573c0,0,8.533-15.36,25.6-32.427h256C394.227,139.8,402.76,155.16,402.76,155.16z M479.56,498.2
		H18.76c17.067-42.667,51.2-68.267,93.867-85.333c0,0,25.6-8.533,42.667-8.533v-0.853c27.307,17.067,58.88,26.453,93.867,26.453
		s66.56-9.387,93.013-26.453l0.853,0.853c17.067,0,42.667,8.533,42.667,8.533C428.36,429.933,462.493,455.533,479.56,498.2z"/>
	<path style="fill:#50DD8E;" d="M325.96,225.133c0-9.387-7.68-17.067-17.067-17.067s-17.067,7.68-17.067,17.067
		s7.68,17.067,17.067,17.067S325.96,234.52,325.96,225.133z M206.493,225.133c0-9.387-7.68-17.067-17.067-17.067
		s-17.067,7.68-17.067,17.067s7.68,17.067,17.067,17.067S206.493,234.52,206.493,225.133z"/>
	<polygon style="fill:#FF7474;" points="377.16,88.6 377.16,122.733 121.16,122.733 121.16,88.6 121.16,71.533 121.16,54.467 
		121.16,37.4 121.16,3.267 377.16,3.267 377.16,37.4 377.16,54.467 377.16,71.533 	"/>
</g>
<path style="fill:#51565F;" d="M482.56,503.467c-1.707,0-3.413-0.853-4.267-2.56c-15.36-37.547-44.373-64-91.307-82.773
	c-2.56-0.853-3.413-3.413-2.56-5.12c0.853-1.707,3.413-3.413,5.12-2.56c48.64,19.627,80.213,48.64,96.427,87.893
	c0.853,2.56,0,4.267-2.56,5.12C483.413,503.467,483.413,503.467,482.56,503.467z M21.76,503.467c-0.853,0-0.853,0-1.707,0
	c-2.56-0.853-3.413-3.413-2.56-5.12c15.36-39.253,46.933-68.267,96.427-87.893c2.56-0.853,4.267,0,5.12,2.56s0,4.267-2.56,5.12
	c-46.933,18.773-76.8,45.227-91.307,82.773C25.173,502.613,23.467,503.467,21.76,503.467z M252.16,435.2
	c-101.547,0-183.467-81.92-183.467-183.467c0-35.84,9.387-69.12,26.453-98.133c0.853-1.707,3.413-2.56,5.973-1.707
	c1.707,0.853,2.56,4.267,1.707,5.973c-16.213,27.307-24.747,58.88-24.747,93.013c0,96.427,78.507,174.933,174.933,174.933
	s174.933-78.507,174.933-174.933c0-34.133-8.533-66.56-24.747-93.013c-0.853-1.707-0.853-4.267,1.707-5.973
	c1.707-0.853,4.267-0.853,5.973,1.707c17.067,28.16,26.453,62.293,26.453,97.28C435.627,353.28,353.707,435.2,252.16,435.2z
	 M252.16,384c-79.36,0-98.133-70.827-98.133-71.68c-0.853-2.56,0.853-4.267,3.413-5.12c2.56-0.853,4.267,0.853,5.12,3.413
	c0.853,2.56,17.067,64.853,89.6,64.853s88.747-62.293,89.6-64.853c0.853-2.56,2.56-3.413,5.12-3.413
	c2.56,0.853,3.413,2.56,3.413,5.12C350.293,313.173,331.52,384,252.16,384z M252.16,315.733c-21.333,0-21.333-36.693-21.333-38.4
	c0-2.56,1.707-4.267,4.267-4.267l0,0c2.56,0,4.267,1.707,4.267,4.267c0,7.68,2.56,29.867,12.8,29.867
	c10.24,0,12.8-22.187,12.8-29.867c0-2.56,1.707-4.267,4.267-4.267s4.267,1.707,4.267,4.267
	C273.493,279.04,273.493,315.733,252.16,315.733z M311.893,247.467c-11.947,0-21.333-9.387-21.333-21.333
	s9.387-21.333,21.333-21.333s21.333,9.387,21.333,21.333S323.84,247.467,311.893,247.467z M311.893,213.333
	c-6.827,0-12.8,5.973-12.8,12.8s5.973,12.8,12.8,12.8s12.8-5.973,12.8-12.8S318.72,213.333,311.893,213.333z M192.427,247.467
	c-11.947,0-21.333-9.387-21.333-21.333s9.387-21.333,21.333-21.333c11.947,0,21.333,9.387,21.333,21.333
	S204.373,247.467,192.427,247.467z M192.427,213.333c-6.827,0-12.8,5.973-12.8,12.8s5.973,12.8,12.8,12.8s12.8-5.973,12.8-12.8
	S199.253,213.333,192.427,213.333z M431.36,128h-51.2c-2.56,0-4.267-1.707-4.267-4.267V8.533H128.427v110.933h217.6
	c2.56,0,4.267,1.707,4.267,4.267c0,2.56-1.707,4.267-4.267,4.267H72.96c-2.56,0-4.267-1.707-4.267-4.267
	c0-2.56,1.707-4.267,4.267-4.267h46.933v-25.6h-12.8c-11.947,0-21.333-9.387-21.333-21.333V55.467
	c0-11.947,9.387-21.333,21.333-21.333h12.8V4.267c0-2.56,1.707-4.267,4.267-4.267h256c2.56,0,4.267,1.707,4.267,4.267v29.867h12.8
	c11.947,0,21.333,9.387,21.333,21.333v17.067c0,11.947-9.387,21.333-21.333,21.333h-12.8v25.6h46.933
	c2.56,0,4.267,1.707,4.267,4.267C435.627,126.293,433.92,128,431.36,128z M384.427,85.333h12.8c6.827,0,12.8-5.973,12.8-12.8V55.467
	c0-6.827-5.973-12.8-12.8-12.8h-12.8V85.333z M107.093,85.333h12.8V42.667h-12.8c-6.827,0-12.8,5.973-12.8,12.8v17.067
	C94.293,79.36,100.267,85.333,107.093,85.333z"/>
</svg>